<?xml version="1.0" standalone="no"?>
<!DOCTYPE svg PUBLIC "-//W3C//DTD SVG 20010904//EN"
 "http://www.w3.org/TR/2001/REC-SVG-20010904/DTD/svg10.dtd">
<svg version="1.0" xmlns="http://www.w3.org/2000/svg"
 width="512.000000pt" height="512.000000pt" viewBox="0 0 512.000000 512.000000"
 preserveAspectRatio="xMidYMid meet">
<metadata>
Created by potrace 1.14, written by Peter Selinger 2001-2017
</metadata>
<g transform="translate(0.000000,512.000000) scale(0.100000,-0.100000)"
fill="#000000" stroke="none">
<path d="M4359 5116 c-2 -2 -26 -6 -54 -10 -119 -14 -295 -61 -460 -120 -165
-60 -219 -84 -423 -188 -135 -68 -178 -86 -192 -78 -25 14 -231 62 -324 76
-21 3 -46 7 -55 9 -43 8 -205 18 -291 18 -159 0 -332 -17 -475 -47 -90 -19
-307 -88 -385 -123 -245 -110 -385 -193 -560 -334 -119 -96 -295 -278 -388
-401 -377 -501 -526 -1107 -426 -1723 14 -87 55 -258 73 -306 7 -20 -4 -47
-60 -154 -93 -177 -205 -434 -224 -515 -2 -8 -15 -48 -29 -88 -14 -41 -28 -83
-30 -95 -3 -12 -12 -53 -20 -92 -26 -124 -34 -207 -31 -340 3 -144 28 -245 84
-339 69 -116 198 -208 341 -243 119 -28 324 -25 500 10 77 15 287 76 335 96
11 5 47 19 80 32 111 42 345 152 453 213 l60 34 82 -24 c76 -22 220 -54 310
-68 121 -20 359 -26 510 -13 758 65 1452 535 1813 1227 108 208 193 461 223
667 3 26 8 56 10 67 22 122 21 473 -1 586 -3 14 -8 45 -11 70 -8 55 -61 276
-75 311 -8 22 -5 35 26 90 54 98 150 296 191 395 35 86 111 301 118 333 1 9 8
34 14 56 31 112 50 266 47 400 -2 147 -17 214 -69 320 -65 132 -211 241 -366
275 -49 11 -313 24 -321 16z m6 -377 c89 -21 148 -69 187 -154 19 -43 22 -66
22 -165 0 -94 -5 -133 -28 -215 -27 -95 -89 -263 -118 -320 l-14 -26 -37 48
c-83 108 -106 133 -231 258 -114 114 -165 157 -323 272 -17 13 -34 23 -37 23
-3 0 -24 13 -48 29 -24 16 -61 38 -82 49 l-39 21 87 41 c176 82 313 126 451
144 99 13 136 12 210 -5z m-3771 -3302 c139 -246 374 -512 609 -687 l59 -44
-44 -22 c-23 -12 -92 -40 -153 -62 -398 -145 -648 -88 -690 158 -20 118 5 280
70 456 44 117 105 254 114 254 3 0 19 -24 35 -53z"/>
</g>
</svg>
